# xmcd CD database file
#
# Track frame offsets:
#	150
#	12550
#	22726
#	37755
#	51775
#	66828
#	79364
#	94310
#	115077
#	133989
#	151253
#	160719
#	181800
#	198941
#	209078
#	227948
#	240365
#	255085
#	268804
#	286205
#	298227
#
# Disc length: 4116 seconds
#
# Revision: 5
# Processed by: cddbd v1.5.2PL0 Copyright (c) Steve Scherf et al.
# Submitted via: CDex 1.70beta2
#
DISCID=24101215
DTITLE=Various Artist - Trampsky hit stoleti
DYEAR=2000
DGENRE=Country
TTITLE0=Rosa na kolejich [Wabi Danek]
TTITLE1=Vlajka [Brontosauri]
TTITLE2=Bedna vod whisky [P.Jisova, Nezmari a Karabina] 
TTITLE3=Niagara [Sestry Havelkovy]
TTITLE4=Jizni Eskadrona [Hlucha Ucha]
TTITLE5=Sedm zlutejch kaminku [Zlaty Orel]
TTITLE6=Tulacky blues [J.Vrbova a T.Linhart]
TTITLE7=Ascalona [Frantisek Nedved]
TTITLE8=Pampelisky [Cervanek]
TTITLE9=Tam u nebeskych bran [Michal Tucny]
TTITLE10=Valcicek [Brontosauri]
TTITLE11=Vsech vandraku muza [Zalman a spol.]
TTITLE12=Podvod [Jan Nedved]
TTITLE13=Stanky [Brontosauri]
TTITLE14=Bajecna zenska [Michal Tucny]
TTITLE15=Tri krize [Hop Trop]
TTITLE16=Posledni kovboj [Michal Tucny]
TTITLE17=Toulavej [Vojta Kidak Tomasko a Rohaci]
TTITLE18=Az ztichnou bile skaly [F.Nedved, H.Marsalkova, T.Linhart] 
TTITLE19=Reka huci [Settlers Club]
TTITLE20=Panenka [Robert Krestan]
EXTD=YEAR: 2000
EXTT0=
EXTT1=
EXTT2=
EXTT3=
EXTT4=
EXTT5=
EXTT6=
EXTT7=
EXTT8=
EXTT9=
EXTT10=
EXTT11=
EXTT12=
EXTT13=
EXTT14=
EXTT15=
EXTT16=
EXTT17=
EXTT18=
EXTT19=
EXTT20=
PLAYORDER=
